<svg xmlns="http://www.w3.org/2000/svg" version="1.1" xmlns:xlink="http://www.w3.org/1999/xlink" xmlns:svgjs="http://svgjs.dev/svgjs" width="1000" height="1000" viewBox="0 0 1000 1000"><rect width="1000" height="1000" fill="#c56e33"></rect><g transform="matrix(0.7,0,0,0.7,149.57575757575756,433.4334009078213)"><svg viewBox="0 0 396 76" data-background-color="#c56e33" preserveAspectRatio="xMidYMid meet" height="191" width="1000" xmlns="http://www.w3.org/2000/svg" xmlns:xlink="http://www.w3.org/1999/xlink"><g id="tight-bounds" transform="matrix(1,0,0,1,0.2400000000000091,-0.1610955048198548)"><svg viewBox="0 0 395.52 76.32219100963974" height="76.32219100963974" width="395.52"><g><svg viewBox="0 0 549.0097748285352 105.94060705052279" height="76.32219100963974" width="395.52"><g><rect width="3.195934252474091" height="91.98894968207476" x="141.92752054340647" y="6.9758286842240125" fill="#ffffff" opacity="1" stroke-width="0" stroke="transparent" fill-opacity="1" class="rect-o-0" data-fill-palette-color="primary" rx="1%" id="o-0" data-palette-color="#ffffff"></rect></g><g transform="matrix(1,0,0,1,153.48977482853527,14.641574491063572)"><svg viewBox="0 0 395.52 76.65745806839564" height="76.65745806839564" width="395.52"><g id="textblocktransform"><svg viewBox="0 0 395.52 76.65745806839564" height="76.65745806839564" width="395.52" id="textblock"><g><svg viewBox="0 0 395.52 35.43909602269899" height="35.43909602269899" width="395.52"><g transform="matrix(1,0,0,1,0,0)"><svg width="395.52" viewBox="2.2699999809265137 -42.189998626708984 490.4200134277344 43.94999694824219" height="35.43909602269899" data-palette-color="#ffffff"><path d="M29.13-14.09L29.13-14.09Q29.13-15.04 28.55-15.36 27.98-15.67 26.88-15.67L26.88-15.67 15.55-15.67 15.55-17.43 26.88-17.43Q30.88-17.43 30.88-14.09L30.88-14.09Q30.88-12.21 29.79-11.38 28.69-10.55 26.88-10.55L26.88-10.55 15.55-10.55 15.55-12.3 26.88-12.3Q29.13-12.3 29.13-14.09ZM14.58-28.13L14.58 0 12.82 0 12.82-29.88 26.88-29.88Q28.54-29.88 29.71-28.87 30.88-27.86 30.88-26.34L30.88-26.34Q30.88-24.34 29.79-23.45 28.69-22.56 26.88-22.56L26.88-22.56 15.55-22.56 15.55-24.32 26.88-24.32Q29.13-24.32 29.13-26.34L29.13-26.34Q29.13-27.17 28.49-27.65 27.86-28.13 26.88-28.13L26.88-28.13 14.58-28.13ZM15.55-19.04L15.55-20.8 26.88-20.8Q29.3-20.8 30.97-22.25 32.64-23.71 32.64-26.34L32.64-26.34Q32.64-28.47 30.9-30.05 29.15-31.64 26.88-31.64L26.88-31.64 11.06-31.64 11.06 0 9.3 0 9.3-33.4 26.88-33.4Q29.88-33.4 32.14-31.29 34.4-29.17 34.4-26.34L34.4-26.34Q34.4-24.12 33.36-22.46 32.32-20.8 30.57-19.9L30.57-19.9Q34.4-18.53 34.4-14.33L34.4-14.33Q34.4-11.01 32.2-9.02 30-7.03 26.88-7.03L26.88-7.03 15.55-7.03 15.55-8.79 26.88-8.79Q29.3-8.79 30.97-10.24 32.64-11.69 32.64-14.33L32.64-14.33Q32.64-16.11 31.37-17.48 30.1-18.85 27.64-19.07L27.64-19.07Q27.39-19.04 26.88-19.04L26.88-19.04 15.55-19.04ZM37.92-26.34L37.92-26.34Q37.92-22.92 35.5-20.17L35.5-20.17Q37.92-17.48 37.92-14.33L37.92-14.33Q37.92-11.28 36.39-8.78 34.86-6.27 32.34-4.9 29.81-3.52 26.88-3.52L26.88-3.52 15.55-3.52 15.55-5.27 26.88-5.27Q30.69-5.27 33.42-7.82 36.16-10.38 36.16-14.33L36.16-14.33Q36.16-15.75 35.44-17.47 34.72-19.19 33.45-20.09L33.45-20.09Q36.16-22.63 36.16-26.34L36.16-26.34Q36.16-29.91 33.37-32.53 30.59-35.16 26.88-35.16L26.88-35.16 7.54-35.16 7.54 0 5.79 0 5.79-36.91 26.88-36.91Q29.79-36.91 32.34-35.49 34.89-34.06 36.4-31.6 37.92-29.15 37.92-26.34ZM37.5-20.07L37.5-20.07Q39.67-22.97 39.67-26.34L39.67-26.34Q39.67-29.64 37.93-32.48 36.18-35.33 33.23-37 30.27-38.67 26.88-38.67L26.88-38.67 4.03-38.67 4.03 0 2.27 0 2.27-40.43 26.88-40.43Q30.74-40.43 34.09-38.53 37.45-36.62 39.44-33.36 41.43-30.1 41.43-26.34L41.43-26.34Q41.43-22.75 39.4-20.04L39.4-20.04Q41.43-17.24 41.43-14.33L41.43-14.33Q41.43-11.06 40.26-8.34 39.09-5.62 37.1-3.81 35.11-2 32.47-1 29.83 0 26.88 0L26.88 0 15.55 0 15.55-1.76 26.88-1.76Q29.44-1.76 31.79-2.72 34.13-3.69 35.86-5.35 37.6-7.01 38.64-9.35 39.67-11.69 39.67-14.33L39.67-14.33Q39.67-15.5 39.12-17.15 38.57-18.8 37.5-20.07ZM45.38 0L45.38-40.43 47.14-40.43 47.14 0 45.38 0ZM55.93 0L55.93-40.43 57.69-40.43 57.69-8.79 71.75-8.79 71.75-7.03 57.69-7.03 57.69-5.27 71.75-5.27 71.75-3.52 57.69-3.52 57.69-1.76 71.75-1.76 71.75 0 55.93 0ZM52.41 0L52.41-40.43 54.17-40.43 54.17 0 52.41 0ZM48.9 0L48.9-40.43 50.66-40.43 50.66 0 48.9 0ZM84.42-40.43L84.42 0 82.66 0 82.66-40.43 84.42-40.43ZM80.9-40.43L80.9 0 79.15 0 79.15-40.43 80.9-40.43ZM77.39-40.43L77.39 0 75.63 0 75.63-40.43 77.39-40.43ZM87.93-15.82L87.93-8.79 106.64-8.79 106.64-7.03 87.93-7.03 87.93-5.27 106.64-5.27 106.64-3.52 87.93-3.52 87.93-1.76 106.64-1.76 106.64 0 86.18 0 86.18-40.43 106.64-40.43 106.64-38.67 87.93-38.67 87.93-36.91 106.64-36.91 106.64-35.16 87.93-35.16 87.93-33.4 106.64-33.4 106.64-31.64 87.93-31.64 87.93-24.61 97.53-24.61 97.53-22.85 87.93-22.85 87.93-21.09 97.53-21.09 97.53-19.34 87.93-19.34 87.93-17.58 97.53-17.58 97.53-15.82 87.93-15.82ZM139.67-40.43L139.67-19.46 137.91-22.36 137.91-40.43 139.67-40.43ZM143.18-40.43L143.18-13.7 141.42-16.65 141.42-40.43 143.18-40.43ZM146.7-40.43L146.7-7.86 144.94-10.84 144.94-40.43 146.7-40.43ZM121.5 0L121.5-20.97 123.26-18.07 123.26 0 121.5 0ZM117.99 0L117.99-26.73 119.74-23.78 119.74 0 117.99 0ZM114.47 0L114.47-32.57 116.23-29.59 116.23 0 114.47 0ZM139.93 0L115.08-40.43 117.13-40.43 141.98 0 139.93 0ZM144.04 0L119.23-40.43 121.31-40.43 146.14 0 144.04 0ZM148.14 0L123.36-40.43 125.41-40.43 148.45-2.86 148.45-40.43 150.21-40.43 150.21 0Q150.21 0 148.14 0L148.14 0ZM135.81 0L112.71-37.57 112.71 0 110.95 0 110.95-40.43Q110.95-40.43 113.05-40.43L113.05-40.43 137.83 0 135.81 0ZM177.38-10.55L165.4-10.55 165.4-29.88Q165.4-29.88 177.38-29.88L177.38-29.88Q180.29-29.88 182.38-27.04 184.46-24.19 184.46-20.21L184.46-20.21Q184.46-16.21 182.38-13.38 180.29-10.55 177.38-10.55L177.38-10.55ZM167.15-28.13L167.15-12.3 177.38-12.3Q179.56-12.3 181.11-14.62 182.66-16.94 182.66-20.21L182.66-20.21Q182.66-23.51 181.11-25.82 179.56-28.13 177.38-28.13L177.38-28.13 167.15-28.13ZM163.64-31.64L163.64-8.79 177.38-8.79Q181.02-8.79 183.64-12.15 186.27-15.5 186.27-20.21L186.27-20.21Q186.27-23.32 185.06-25.95 183.85-28.59 181.81-30.11 179.78-31.64 177.38-31.64L177.38-31.64 163.64-31.64ZM177.38-7.03L161.88-7.03 161.88-33.4 177.38-33.4Q180.24-33.4 182.7-31.64 185.17-29.88 186.62-26.84 188.08-23.8 188.08-20.21L188.08-20.21Q188.08-16.65 186.62-13.6 185.17-10.55 182.7-8.79 180.24-7.03 177.38-7.03L177.38-7.03ZM160.12-35.16L160.12-5.27 177.38-5.27Q180.73-5.27 183.6-7.28 186.46-9.28 188.17-12.72 189.88-16.16 189.88-20.21L189.88-20.21Q189.88-24.24 188.17-27.7 186.46-31.15 183.58-33.15 180.7-35.16 177.38-35.16L177.38-35.16 160.12-35.16ZM177.38-3.52L158.36-3.52 158.36-36.91 177.38-36.91Q181.19-36.91 184.49-34.68 187.78-32.45 189.74-28.59 191.69-24.73 191.69-20.21 191.69-15.7 189.74-11.84 187.78-7.98 184.49-5.75 181.19-3.52 177.38-3.52L177.38-3.52ZM156.61-38.67L156.61-1.76 177.38-1.76Q180.58-1.76 183.56-3.22 186.54-4.69 188.71-7.15 190.88-9.62 192.19-13.05 193.5-16.48 193.5-20.21 193.5-23.95 192.19-27.37 190.88-30.79 188.71-33.26 186.54-35.74 183.56-37.21 180.58-38.67 177.38-38.67L177.38-38.67 156.61-38.67ZM177.38 0L177.38 0 154.85 0 154.85-40.43 177.38-40.43Q182.14-40.43 186.27-37.72 190.4-35.01 192.85-30.35 195.3-25.68 195.3-20.21L195.3-20.21Q195.3-16.11 193.85-12.37 192.4-8.62 189.98-5.91 187.56-3.2 184.26-1.6 180.95 0 177.38 0ZM231.43-14.09L231.43-14.09Q231.43-15.04 230.86-15.36 230.28-15.67 229.18-15.67L229.18-15.67 217.86-15.67 217.86-17.43 229.18-17.43Q233.19-17.43 233.19-14.09L233.19-14.09Q233.19-12.21 232.09-11.38 230.99-10.55 229.18-10.55L229.18-10.55 217.86-10.55 217.86-12.3 229.18-12.3Q231.43-12.3 231.43-14.09ZM216.88-28.13L216.88 0 215.12 0 215.12-29.88 229.18-29.88Q230.84-29.88 232.02-28.87 233.19-27.86 233.19-26.34L233.19-26.34Q233.19-24.34 232.09-23.45 230.99-22.56 229.18-22.56L229.18-22.56 217.86-22.56 217.86-24.32 229.18-24.32Q231.43-24.32 231.43-26.34L231.43-26.34Q231.43-27.17 230.8-27.65 230.16-28.13 229.18-28.13L229.18-28.13 216.88-28.13ZM217.86-19.04L217.86-20.8 229.18-20.8Q231.6-20.8 233.27-22.25 234.95-23.71 234.95-26.34L234.95-26.34Q234.95-28.47 233.2-30.05 231.45-31.64 229.18-31.64L229.18-31.64 213.36-31.64 213.36 0 211.61 0 211.61-33.4 229.18-33.4Q232.19-33.4 234.45-31.29 236.7-29.17 236.7-26.34L236.7-26.34Q236.7-24.12 235.67-22.46 234.63-20.8 232.87-19.9L232.87-19.9Q236.7-18.53 236.7-14.33L236.7-14.33Q236.7-11.01 234.51-9.02 232.31-7.03 229.18-7.03L229.18-7.03 217.86-7.03 217.86-8.79 229.18-8.79Q231.6-8.79 233.27-10.24 234.95-11.69 234.95-14.33L234.95-14.33Q234.95-16.11 233.68-17.48 232.41-18.85 229.94-19.07L229.94-19.07Q229.7-19.04 229.18-19.04L229.18-19.04 217.86-19.04ZM240.22-26.34L240.22-26.34Q240.22-22.92 237.8-20.17L237.8-20.17Q240.22-17.48 240.22-14.33L240.22-14.33Q240.22-11.28 238.69-8.78 237.17-6.27 234.64-4.9 232.11-3.52 229.18-3.52L229.18-3.52 217.86-3.52 217.86-5.27 229.18-5.27Q232.99-5.27 235.73-7.82 238.46-10.38 238.46-14.33L238.46-14.33Q238.46-15.75 237.74-17.47 237.02-19.19 235.75-20.09L235.75-20.09Q238.46-22.63 238.46-26.34L238.46-26.34Q238.46-29.91 235.68-32.53 232.9-35.16 229.18-35.16L229.18-35.16 209.85-35.16 209.85 0 208.09 0 208.09-36.91 229.18-36.91Q232.09-36.91 234.64-35.49 237.19-34.06 238.71-31.6 240.22-29.15 240.22-26.34ZM239.8-20.07L239.8-20.07Q241.98-22.97 241.98-26.34L241.98-26.34Q241.98-29.64 240.23-32.48 238.49-35.33 235.53-37 232.58-38.67 229.18-38.67L229.18-38.67 206.33-38.67 206.33 0 204.57 0 204.57-40.43 229.18-40.43Q233.04-40.43 236.4-38.53 239.76-36.62 241.75-33.36 243.74-30.1 243.74-26.34L243.74-26.34Q243.74-22.75 241.71-20.04L241.71-20.04Q243.74-17.24 243.74-14.33L243.74-14.33Q243.74-11.06 242.56-8.34 241.39-5.62 239.4-3.81 237.41-2 234.78-1 232.14 0 229.18 0L229.18 0 217.86 0 217.86-1.76 229.18-1.76Q231.75-1.76 234.09-2.72 236.44-3.69 238.17-5.35 239.9-7.01 240.94-9.35 241.98-11.69 241.98-14.33L241.98-14.33Q241.98-15.5 241.43-17.15 240.88-18.8 239.8-20.07ZM276.15-17.77L276.15-17.77 276.15-40.43 277.91-40.43 277.91-17.77Q277.91-14.06 274.98-11.43 272.05-8.79 267.95-8.79 263.85-8.79 260.92-11.43 257.99-14.06 257.99-17.77L257.99-17.77 257.99-40.43 259.75-40.43 259.75-17.77Q259.75-14.79 262.15-12.67 264.56-10.55 267.95-10.55 271.34-10.55 273.75-12.67 276.15-14.79 276.15-17.77ZM279.67-17.77L279.67-17.77 279.67-40.43 281.43-40.43 281.43-17.77Q281.43-15.23 280.35-12.93 279.28-10.62 277.47-8.94 275.67-7.25 273.18-6.26 270.69-5.27 267.95-5.27 265.22-5.27 262.73-6.26 260.24-7.25 258.43-8.94 256.62-10.62 255.55-12.93 254.47-15.23 254.47-17.77L254.47-17.77 254.47-40.43 256.23-40.43 256.23-17.77Q256.23-14.87 257.81-12.39 259.38-9.91 262.08-8.47 264.78-7.03 267.95-7.03 271.13-7.03 273.82-8.47 276.52-9.91 278.1-12.39 279.67-14.87 279.67-17.77ZM283.19-17.77L283.19-17.77 283.19-40.43 284.94-40.43 284.94-17.77Q284.94-14.53 283.59-11.56 282.23-8.59 279.96-6.45 277.69-4.3 274.54-3.03 271.39-1.76 267.95-1.76 264.51-1.76 261.36-3.03 258.21-4.3 255.94-6.45 253.67-8.59 252.31-11.56 250.96-14.53 250.96-17.77L250.96-17.77 250.96-40.43 252.72-40.43 252.72-17.77Q252.72-13.92 254.77-10.63 256.82-7.35 260.32-5.43 263.83-3.52 267.95-3.52 272.08-3.52 275.58-5.43 279.08-7.35 281.13-10.63 283.19-13.92 283.19-17.77ZM286.7-17.77L286.7-17.77 286.7-40.43 288.46-40.43 288.46-17.77Q288.46-12.5 285.7-8 282.94-3.49 278.22-0.87 273.49 1.76 267.95 1.76 262.41 1.76 257.69-0.87 252.96-3.49 250.2-8 247.44-12.5 247.44-17.77L247.44-17.77 247.44-40.43 249.2-40.43 249.2-17.77Q249.2-14.18 250.69-10.89 252.18-7.59 254.69-5.21 257.21-2.83 260.69-1.42 264.17 0 267.95 0 271.74 0 275.21-1.42 278.69-2.83 281.21-5.21 283.72-7.59 285.21-10.89 286.7-14.18 286.7-17.77ZM303.5 0L303.5-40.43 305.25-40.43 305.25 0 303.5 0ZM299.98 0L299.98-40.43 301.74-40.43 301.74 0 299.98 0ZM296.46 0L296.46-40.43 298.22-40.43 298.22 0 296.46 0ZM292.95 0L292.95-40.43 294.71-40.43 294.71 0 292.95 0ZM309.89 0L309.89-40.43 311.65-40.43 311.65 0 309.89 0ZM320.44 0L320.44-40.43 322.19-40.43 322.19-8.79 336.26-8.79 336.26-7.03 322.19-7.03 322.19-5.27 336.26-5.27 336.26-3.52 322.19-3.52 322.19-1.76 336.26-1.76 336.26 0 320.44 0ZM316.92 0L316.92-40.43 318.68-40.43 318.68 0 316.92 0ZM313.41 0L313.41-40.43 315.16-40.43 315.16 0 313.41 0ZM362.67-10.55L350.68-10.55 350.68-29.88Q350.68-29.88 362.67-29.88L362.67-29.88Q365.58-29.88 367.66-27.04 369.75-24.19 369.75-20.21L369.75-20.21Q369.75-16.21 367.66-13.38 365.58-10.55 362.67-10.55L362.67-10.55ZM352.44-28.13L352.44-12.3 362.67-12.3Q364.84-12.3 366.39-14.62 367.94-16.94 367.94-20.21L367.94-20.21Q367.94-23.51 366.39-25.82 364.84-28.13 362.67-28.13L362.67-28.13 352.44-28.13ZM348.93-31.64L348.93-8.79 362.67-8.79Q366.31-8.79 368.93-12.15 371.56-15.5 371.56-20.21L371.56-20.21Q371.56-23.32 370.35-25.95 369.14-28.59 367.1-30.11 365.06-31.64 362.67-31.64L362.67-31.64 348.93-31.64ZM362.67-7.03L347.17-7.03 347.17-33.4 362.67-33.4Q365.53-33.4 367.99-31.64 370.46-29.88 371.91-26.84 373.36-23.8 373.36-20.21L373.36-20.21Q373.36-16.65 371.91-13.6 370.46-10.55 367.99-8.79 365.53-7.03 362.67-7.03L362.67-7.03ZM345.41-35.16L345.41-5.27 362.67-5.27Q366.02-5.27 368.88-7.28 371.75-9.28 373.46-12.72 375.17-16.16 375.17-20.21L375.17-20.21Q375.17-24.24 373.46-27.7 371.75-31.15 368.87-33.15 365.99-35.16 362.67-35.16L362.67-35.16 345.41-35.16ZM362.67-3.52L343.65-3.52 343.65-36.91 362.67-36.91Q366.48-36.91 369.77-34.68 373.07-32.45 375.02-28.59 376.98-24.73 376.98-20.21 376.98-15.7 375.02-11.84 373.07-7.98 369.77-5.75 366.48-3.52 362.67-3.52L362.67-3.52ZM341.89-38.67L341.89-1.76 362.67-1.76Q365.87-1.76 368.85-3.22 371.83-4.69 374-7.15 376.17-9.62 377.48-13.05 378.78-16.48 378.78-20.21 378.78-23.95 377.48-27.37 376.17-30.79 374-33.26 371.83-35.74 368.85-37.21 365.87-38.67 362.67-38.67L362.67-38.67 341.89-38.67ZM362.67 0L362.67 0 340.14 0 340.14-40.43 362.67-40.43Q367.43-40.43 371.56-37.72 375.68-35.01 378.14-30.35 380.59-25.68 380.59-20.21L380.59-20.21Q380.59-16.11 379.14-12.37 377.68-8.62 375.27-5.91 372.85-3.2 369.54-1.6 366.23 0 362.67 0ZM393.23-40.43L393.23 0 391.48 0 391.48-40.43 393.23-40.43ZM389.72-40.43L389.72 0 387.96 0 387.96-40.43 389.72-40.43ZM386.2-40.43L386.2 0 384.45 0 384.45-40.43 386.2-40.43ZM396.75-15.82L396.75-8.79 415.45-8.79 415.45-7.03 396.75-7.03 396.75-5.27 415.45-5.27 415.45-3.52 396.75-3.52 396.75-1.76 415.45-1.76 415.45 0 394.99 0 394.99-40.43 415.45-40.43 415.45-38.67 396.75-38.67 396.75-36.91 415.45-36.91 415.45-35.16 396.75-35.16 396.75-33.4 415.45-33.4 415.45-31.64 396.75-31.64 396.75-24.61 406.34-24.61 406.34-22.85 396.75-22.85 396.75-21.09 406.34-21.09 406.34-19.34 396.75-19.34 396.75-17.58 406.34-17.58 406.34-15.82 396.75-15.82ZM433.05-18.36L433.05-20.12 443.65-20.12Q446.06-20.12 447.74-21.68 449.41-23.24 449.41-26.12L449.41-26.12Q449.41-28.25 447.65-29.94 445.89-31.64 443.65-31.64L443.65-31.64 428.56-31.64 428.56 0 426.8 0 426.8-33.4 443.65-33.4Q446.63-33.4 448.9-31.19 451.17-28.98 451.17-26.12L451.17-26.12Q451.17-22.61 448.97-20.48 446.77-18.36 443.65-18.36L443.65-18.36 433.05-18.36ZM433.05-14.84L433.05-16.6 443.65-16.6Q447.46-16.6 450.19-19.27 452.92-21.95 452.92-26.12L452.92-26.12Q452.92-29.71 450.13-32.43 447.33-35.16 443.65-35.16L443.65-35.16 425.04-35.16 425.04 0 423.29 0 423.29-36.91 443.65-36.91Q446.55-36.91 449.1-35.42 451.65-33.94 453.17-31.43 454.68-28.93 454.68-26.12L454.68-26.12Q454.68-21.31 451.42-18.08 448.16-14.84 443.65-14.84L443.65-14.84 433.05-14.84ZM433.05-11.33L433.05-13.09 443.65-13.09Q447.06-13.09 449.99-14.77 452.92-16.46 454.68-19.47 456.44-22.49 456.44-26.12L456.44-26.12Q456.44-29.42 454.69-32.31 452.95-35.21 449.99-36.94 447.04-38.67 443.65-38.67L443.65-38.67 421.53-38.67 421.53 0 419.77 0 419.77-40.43 443.65-40.43Q447.48-40.43 450.85-38.46 454.22-36.5 456.21-33.19 458.2-29.88 458.2-26.12L458.2-26.12Q458.2-21.78 456.33-18.48 454.46-15.19 451.26-13.33L451.26-13.33 455.8 0 453.95 0 449.6-12.5Q448.63-12.11 448.11-11.96L448.11-11.96 452.19 0 450.34 0 446.36-11.55Q446.14-11.5 444.79-11.38L444.79-11.38 448.58 0 446.72 0 442.99-11.33 441.4-11.33 444.97 0 443.11 0 439.52-11.33 433.05-11.33ZM432.07-28.13L432.07 0 430.32 0 430.32-29.88 443.65-29.88Q445.28-29.88 446.47-28.77 447.65-27.66 447.65-26.12L447.65-26.12Q447.65-21.88 443.65-21.88L443.65-21.88 433.05-21.88 433.05-23.63 443.65-23.63Q444.7-23.63 445.29-24.18 445.89-24.73 445.89-26.12L445.89-26.12Q445.89-26.98 445.25-27.55 444.6-28.13 443.65-28.13L443.65-28.13 432.07-28.13ZM478.29-24.61L478.29-24.61 475.33-24.61Q473.45-24.61 472.62-25.57 471.79-26.54 471.79-28.13L471.79-28.13Q471.79-31.64 477.04-31.64L477.04-31.64Q481.97-31.64 484.46-30.18L484.46-30.18 483.05-29.1Q481.34-29.88 477.04-29.88L477.04-29.88Q474.94-29.88 474.22-29.42 473.5-28.96 473.5-28.13 473.5-27.29 473.89-26.83 474.28-26.37 475.33-26.37L475.33-26.37 478.36-26.37Q481.66-26.37 484.31-25.24 486.95-24.12 488.66-22.18 490.37-20.24 491.28-17.71 492.18-15.19 492.18-12.3L492.18-12.3Q492.18-9.96 491.52-7.86 490.86-5.76 489.53-4 488.2-2.25 486.33-0.96 484.46 0.32 481.89 1.04 479.31 1.76 476.31 1.76L476.31 1.76Q471.6 1.76 467.48 0.33 463.37-1.1 460.64-3.66L460.64-3.66 462.05-4.71Q464.54-2.47 468.29-1.23 472.04 0 476.31 0L476.31 0Q479.66 0 482.35-0.96 485.05-1.93 486.8-3.61 488.54-5.3 489.48-7.52 490.42-9.74 490.42-12.3L490.42-12.3Q490.42-15.7 489.05-18.44 487.69-21.19 484.89-22.9 482.1-24.61 478.29-24.61ZM475.33-22.85L475.33-22.85 478.12-22.85Q483.07-22.85 485.87-19.82 488.66-16.8 488.66-12.3L488.66-12.3Q488.66-7.74 485.42-4.75 482.17-1.76 476.31-1.76L476.31-1.76Q472.4-1.76 469.01-2.83 465.62-3.91 463.37-5.86L463.37-5.86 464.74-6.96Q466.74-5.32 469.78-4.42 472.82-3.52 476.31-3.52L476.31-3.52Q481.46-3.52 484.18-5.98 486.91-8.45 486.91-12.3L486.91-12.3Q486.91-16.11 484.62-18.6 482.34-21.09 478.09-21.09L478.09-21.09 475.33-21.09Q471.77-21.09 469.99-23.05 468.2-25 468.2-28.13 468.2-31.25 470.41-33.2 472.62-35.16 477.04-35.16L477.04-35.16Q480.14-35.16 482.8-34.44 485.47-33.72 487.2-32.37L487.2-32.37 485.81-31.3Q482.76-33.4 477.04-33.4L477.04-33.4Q473.36-33.4 471.66-31.95 469.96-30.49 469.96-28.13L469.96-28.13Q469.96-25.73 471.22-24.29 472.48-22.85 475.33-22.85ZM475.33-19.34L475.33-19.34 478.02-19.34Q481.58-19.34 483.37-17.36 485.15-15.38 485.15-12.3L485.15-12.3Q485.15-9.18 482.94-7.23 480.73-5.27 476.31-5.27L476.31-5.27Q473.21-5.27 470.54-5.99 467.86-6.71 466.13-8.06L466.13-8.06 467.52-9.13Q470.57-7.03 476.31-7.03L476.31-7.03Q480-7.03 481.69-8.48 483.39-9.94 483.39-12.3 483.39-14.67 482.12-16.13 480.85-17.58 477.99-17.58L477.99-17.58 475.33-17.58Q470.33-17.58 467.51-20.57 464.69-23.56 464.69-28.13 464.69-32.69 467.94-35.68 471.18-38.67 477.04-38.67L477.04-38.67Q480.95-38.67 484.33-37.6 487.71-36.52 489.96-34.57L489.96-34.57 488.59-33.47Q486.59-35.11 483.56-36.01 480.53-36.91 477.04-36.91L477.04-36.91Q471.89-36.91 469.17-34.45 466.45-31.98 466.45-28.13L466.45-28.13Q466.45-24.29 468.74-21.81 471.04-19.34 475.33-19.34ZM475.33-15.82L475.33-15.82 478.02-15.82Q479.9-15.82 480.73-14.84 481.56-13.87 481.56-12.3L481.56-12.3Q481.56-8.79 476.31-8.79L476.31-8.79Q471.35-8.79 468.86-10.25L468.86-10.25 470.28-11.33Q471.99-10.55 476.31-10.55L476.31-10.55Q478.41-10.55 479.13-11.01 479.85-11.47 479.85-12.3L479.85-12.3Q479.85-13.11 479.45-13.59 479.04-14.06 477.97-14.06L477.97-14.06 475.33-14.06Q471.96-14.06 469.24-15.16 466.52-16.26 464.77-18.19 463.03-20.12 462.1-22.66 461.17-25.2 461.17-28.13L461.17-28.13Q461.17-30.47 461.83-32.57 462.49-34.67 463.82-36.43 465.15-38.18 467.02-39.47 468.89-40.75 471.46-41.47 474.04-42.19 477.04-42.19L477.04-42.19Q481.75-42.19 485.86-40.76 489.96-39.33 492.69-36.77L492.69-36.77 491.28-35.72Q488.79-37.96 485.05-39.2 481.32-40.43 477.04-40.43L477.04-40.43Q473.7-40.43 471-39.47 468.3-38.5 466.56-36.82 464.81-35.13 463.87-32.91 462.93-30.69 462.93-28.13L462.93-28.13Q462.93-24.68 464.32-21.92 465.71-19.17 468.57-17.49 471.43-15.82 475.33-15.82Z" opacity="1" transform="matrix(1,0,0,1,0,0)" fill="#ffffff" class="undefined-text-0" data-fill-palette-color="primary" id="text-0"></path></svg></g></svg></g><g transform="matrix(1,0,0,1,0,43.805416055353675)"><svg viewBox="0 0 124.38668238875864 32.85204201304197" height="32.85204201304197" width="124.38668238875864"><g transform="matrix(1,0,0,1,0,0)"><svg width="124.38668238875864" viewBox="2.549999952316284 -38 146.13999938964844 38.599998474121094" height="32.85204201304197" data-palette-color="#b42c2c"><path d="M17.55 0.6L17.55 0.6Q14.05 0.6 11.28-0.73 8.5-2.05 6.55-4.42 4.6-6.8 3.58-10.13 2.55-13.45 2.55-17.45L2.55-17.45Q2.55-21.8 3.68-25.18 4.8-28.55 6.75-30.85 8.7-33.15 11.38-34.33 14.05-35.5 17.15-35.5L17.15-35.5Q20.4-35.5 22.38-34.4 24.35-33.3 25.05-31.85L25.05-31.85 25.3-31.85 25.3-34.9 29.85-34.9 29.85-24.3 25.3-24.3 25.3-26.75Q25.3-29.3 23.33-30.83 21.35-32.35 17.95-32.35L17.95-32.35Q15.7-32.35 14.03-31.58 12.35-30.8 11.28-29.38 10.2-27.95 9.65-25.98 9.1-24 9.1-21.65L9.1-21.65 9.1-13.85Q9.1-8.7 11.68-5.95 14.25-3.2 18.7-3.2L18.7-3.2Q22.1-3.2 24.43-4.98 26.75-6.75 27.85-9.6L27.85-9.6 30.2-8.35Q29.65-6.7 28.58-5.1 27.5-3.5 25.9-2.23 24.3-0.95 22.2-0.18 20.1 0.6 17.55 0.6ZM46.6-2.35L46.6-2.35Q49.75-2.35 51.22-4.3 52.7-6.25 52.7-9.5L52.7-9.5 52.7-16.5Q52.7-19.75 51.22-21.7 49.75-23.65 46.6-23.65L46.6-23.65Q43.45-23.65 41.97-21.7 40.5-19.75 40.5-16.5L40.5-16.5 40.5-9.5Q40.5-6.25 41.97-4.3 43.45-2.35 46.6-2.35ZM46.6 0.6L46.6 0.6Q43.85 0.6 41.6-0.35 39.35-1.3 37.75-3.05 36.15-4.8 35.27-7.33 34.4-9.85 34.4-13L34.4-13Q34.4-16.15 35.27-18.68 36.15-21.2 37.75-22.95 39.35-24.7 41.6-25.65 43.85-26.6 46.6-26.6L46.6-26.6Q49.35-26.6 51.6-25.65 53.85-24.7 55.45-22.95 57.05-21.2 57.92-18.68 58.8-16.15 58.8-13L58.8-13Q58.8-9.85 57.92-7.33 57.05-4.8 55.45-3.05 53.85-1.3 51.6-0.35 49.35 0.6 46.6 0.6ZM62.8 0L62.8-2.7 66.2-2.7 66.2-23.1 62.8-23.1 62.8-26 66.2-26 66.2-29.15Q66.2-31.15 66.85-32.8 67.5-34.45 68.72-35.6 69.95-36.75 71.67-37.38 73.4-38 75.55-38L75.55-38Q78.55-38 80.17-36.75 81.8-35.5 81.8-33.55L81.8-33.55Q81.8-32.1 80.97-31.25 80.15-30.4 78.85-30.4L78.85-30.4Q77.5-30.4 76.75-31.18 76-31.95 76-33.1L76-33.1Q76-34 76.4-34.58 76.8-35.15 77.35-35.4L77.35-35.4 77.35-35.55Q76.75-35.7 75.8-35.7L75.8-35.7Q71.8-35.7 71.8-30.05L71.8-30.05 71.8-26 77.2-26 77.2-23.1 71.8-23.1 71.8-2.7 76.2-2.7 76.2 0 62.8 0ZM80.79 0L80.79-2.7 84.19-2.7 84.19-23.1 80.79-23.1 80.79-26 84.19-26 84.19-29.15Q84.19-31.15 84.84-32.8 85.49-34.45 86.72-35.6 87.94-36.75 89.67-37.38 91.39-38 93.54-38L93.54-38Q96.54-38 98.17-36.75 99.79-35.5 99.79-33.55L99.79-33.55Q99.79-32.1 98.97-31.25 98.14-30.4 96.84-30.4L96.84-30.4Q95.49-30.4 94.74-31.18 93.99-31.95 93.99-33.1L93.99-33.1Q93.99-34 94.39-34.58 94.79-35.15 95.34-35.4L95.34-35.4 95.34-35.55Q94.74-35.7 93.79-35.7L93.79-35.7Q89.79-35.7 89.79-30.05L89.79-30.05 89.79-26 95.19-26 95.19-23.1 89.79-23.1 89.79-2.7 94.19-2.7 94.19 0 80.79 0ZM110.24 0.6L110.24 0.6Q107.34 0.6 105.09-0.38 102.84-1.35 101.29-3.15 99.74-4.95 98.92-7.45 98.09-9.95 98.09-13L98.09-13Q98.09-16.1 98.97-18.6 99.84-21.1 101.42-22.88 102.99-24.65 105.17-25.63 107.34-26.6 109.94-26.6L109.94-26.6Q112.59-26.6 114.69-25.73 116.79-24.85 118.27-23.25 119.74-21.65 120.54-19.4 121.34-17.15 121.34-14.4L121.34-14.4 121.34-13.05 104.14-13.05 104.14-11.45Q104.14-7.55 106.09-5.43 108.04-3.3 111.34-3.3L111.34-3.3Q114.24-3.3 116.02-4.58 117.79-5.85 118.64-7.75L118.64-7.75 120.79-6.45Q120.34-5.15 119.47-3.9 118.59-2.65 117.29-1.65 115.99-0.65 114.24-0.03 112.49 0.6 110.24 0.6ZM104.14-16.35L104.14-15.7 115.54-15.7 115.54-16.25Q115.54-19.85 114.17-21.83 112.79-23.8 109.94-23.8L109.94-23.8Q107.14-23.8 105.64-21.88 104.14-19.95 104.14-16.35L104.14-16.35ZM137.59 0.6L137.59 0.6Q134.69 0.6 132.44-0.38 130.19-1.35 128.64-3.15 127.09-4.95 126.26-7.45 125.44-9.95 125.44-13L125.44-13Q125.44-16.1 126.31-18.6 127.19-21.1 128.76-22.88 130.34-24.65 132.51-25.63 134.69-26.6 137.29-26.6L137.29-26.6Q139.94-26.6 142.04-25.73 144.14-24.85 145.61-23.25 147.09-21.65 147.89-19.4 148.69-17.15 148.69-14.4L148.69-14.4 148.69-13.05 131.49-13.05 131.49-11.45Q131.49-7.55 133.44-5.43 135.39-3.3 138.69-3.3L138.69-3.3Q141.59-3.3 143.36-4.58 145.14-5.85 145.99-7.75L145.99-7.75 148.14-6.45Q147.69-5.15 146.81-3.9 145.94-2.65 144.64-1.65 143.34-0.65 141.59-0.03 139.84 0.6 137.59 0.6ZM131.49-16.35L131.49-15.7 142.89-15.7 142.89-16.25Q142.89-19.85 141.51-21.83 140.14-23.8 137.29-23.8L137.29-23.8Q134.49-23.8 132.99-21.88 131.49-19.95 131.49-16.35L131.49-16.35Z" opacity="1" transform="matrix(1,0,0,1,0,0)" fill="#b42c2c" class="undefined-text-1" data-fill-palette-color="secondary" id="text-1"></path></svg></g></svg></g></svg></g></svg></g><g><svg viewBox="0 0 133.56120051075177 105.94060705052279" height="105.94060705052279" width="133.56120051075177"><g><svg xmlns="http://www.w3.org/2000/svg" xmlns:xlink="http://www.w3.org/1999/xlink" version="1.0" x="0" y="0" viewBox="13.711999893188477 21.215999603271484 72.5770034790039 57.5680046081543" enable-background="new 0 0 100 100" xml:space="preserve" height="105.94060705052279" width="133.56120051075177" class="icon-icon-0" data-fill-palette-color="accent" id="icon-0"><g fill="#ffffff" data-fill-palette-color="accent"><path fill="#ffffff" d="M72.296 32.924c-0.191-1.724-0.445-3.43-0.781-5.106h-0.044c-0.585-3.67-13.005-6.602-28.247-6.602-15.243 0-27.663 2.932-28.247 6.602h-0.098c-0.764 3.811-1.167 7.756-1.167 11.794 0 11.934 3.505 23.036 9.524 32.317 0.012 0.018 0.023 0.037 0.036 0.055 0.309 0.475 0.624 0.945 0.946 1.41 0.056 0.08 0.112 0.16 0.168 0.242 0.32 0.457 0.644 0.91 0.977 1.357h0.014c1.181 2.141 8.719 3.791 17.847 3.791 9.366 0 17.062-1.738 17.928-3.959 0.325-0.441 0.643-0.889 0.955-1.34 0.072-0.105 0.144-0.209 0.215-0.314 0.298-0.434 0.59-0.873 0.876-1.316 0.009-0.014 0.019-0.027 0.028-0.043 0.32-0.498 0.634-1.004 0.939-1.514 0.017-0.025 0.032-0.053 0.048-0.08 0.302-0.502 0.596-1.01 0.883-1.523 0.002-0.002 0.004-0.006 0.006-0.01l0 0c0.473-0.844 0.928-1.701 1.361-2.57 8.308-0.582 19.519-10.209 19.811-25.475l0.015-0.703C86.288 33.494 79.188 32.975 72.296 32.924zM43.224 32.462c-13.414 0-24.288-1.958-24.288-4.375 0-2.416 10.874-4.375 24.288-4.375 13.413 0 24.287 1.959 24.287 4.375C67.511 30.504 56.637 32.462 43.224 32.462zM80.435 40.522c-0.172 8.976-5.028 15.451-10.021 18.283 2.068-6.173 3.116-12.618 3.116-19.194 0-0.271-0.006-0.542-0.015-0.812 6.731 0.186 6.933 0.989 6.934 1.068L80.435 40.522z" data-fill-palette-color="accent"></path></g></svg></g></svg></g></svg></g><defs></defs></svg><rect width="395.52" height="76.32219100963974" fill="none" stroke="none" visibility="hidden"></rect></g></svg></g></svg>